<?xml version="1.0" encoding="UTF-8" standalone="no"?>
<!-- Created with Inkscape (http://www.inkscape.org/) -->

<svg
   version="1.1"
   id="svg353"
   width="400"
   height="400"
   viewBox="0 0 400 400"
   sodipodi:docname="AshbyIcon.ai"
   xmlns:inkscape="http://www.inkscape.org/namespaces/inkscape"
   xmlns:sodipodi="http://sodipodi.sourceforge.net/DTD/sodipodi-0.dtd"
   xmlns="http://www.w3.org/2000/svg"
   xmlns:svg="http://www.w3.org/2000/svg">
  <defs
     id="defs357">
    <clipPath
       clipPathUnits="userSpaceOnUse"
       id="clipPath609">
      <path
         d="M 0,300 H 300 V 0 H 0 Z"
         id="path607" />
    </clipPath>
  </defs>
  <sodipodi:namedview
     id="namedview355"
     pagecolor="#ffffff"
     bordercolor="#000000"
     borderopacity="0.25"
     inkscape:showpageshadow="2"
     inkscape:pageopacity="0.0"
     inkscape:pagecheckerboard="0"
     inkscape:deskcolor="#d1d1d1"
     showgrid="false" />
  <g
     id="g601"
     inkscape:groupmode="layer"
     inkscape:label="Page 8"
     transform="matrix(1.3333333,0,0,-1.3333333,0,400)">
    <g
       id="g603">
      <g
         id="g605"
         clip-path="url(#clipPath609)">
        <g
           id="g611"
           transform="translate(154.2897,27.5528)">
          <path
             d="m 0,0 h -105.377 c -6.255,0 -2.509,5.117 8.324,11.372 l 62.949,36.343 c 10.833,6.255 24.814,11.372 31.068,11.372 h 105.377 c 6.255,0 2.509,-5.117 -8.324,-11.372 L 31.068,11.372 C 20.235,5.117 6.254,0 0,0"
             style="fill:#85ab8f;fill-opacity:1;fill-rule:nonzero;stroke:none"
             id="path613" />
        </g>
        <g
           id="g615"
           transform="translate(268.7961,96.212)">
          <path
             d="m 0,0 h -104.12 c -6.6,0 -12,5.4 -12,12 v 35.087 c 0,6.6 5.4,12 12,12 H 0 c 6.6,0 12,-5.4 12,-12 V 12 C 12,5.4 6.6,0 0,0"
             style="fill:#85ab8f;fill-opacity:1;fill-rule:nonzero;stroke:none"
             id="path617" />
        </g>
        <g
           id="g619"
           transform="translate(129.1858,90.8851)">
          <path
             d="m 0,0 -105.377,-60.84 c -6.255,-3.611 -11.372,-1.448 -11.372,4.807 v 36.343 c 0,6.255 5.117,14.326 11.372,17.937 L 0,59.087 c 6.254,3.611 11.372,1.448 11.372,-4.806 V 17.937 C 11.372,11.683 6.254,3.611 0,0"
             style="fill:#85ab8f;fill-opacity:1;fill-rule:nonzero;stroke:none"
             id="path621" />
        </g>
        <g
           id="g623"
           transform="translate(139.6351,227.7596)">
          <path
             d="m 0,0 c -3.096,-3.22 -2.337,-8.505 1.557,-10.695 9.57,-5.385 25.949,-16.327 38.828,-33.831 12.754,-17.335 19.824,-45.757 23.175,-63.222 1.129,-5.89 -5.344,-10.27 -10.402,-7.048 l -28.786,18.343 c -3.143,2.003 -7.312,1.122 -9.376,-1.982 l -18.848,-28.348 c -3.67,-5.519 -12.272,-3.125 -12.535,3.497 -0.499,12.534 -2.295,28.859 -7.326,45.572 -5.539,18.406 -11.356,30.224 -15.643,37.311 -2.695,4.454 -9.198,4.346 -11.781,-0.174 l -6.478,-11.335 c -2.988,-5.229 -10.784,-4.328 -12.501,1.444 l -24.243,81.49 c -1.345,4.524 2.184,9.02 6.898,8.787 L 17.554,34.613 c 5.865,-0.29 8.665,-7.346 4.595,-11.579 z"
             style="fill:#b5cde3;fill-opacity:1;fill-rule:nonzero;stroke:none"
             id="path625" />
        </g>
        <g
           id="g627"
           transform="translate(278.541,89.8851)">
          <path
             d="m 0,0 -105.377,-60.84 c -6.255,-3.611 -11.372,-1.448 -11.372,4.807 v 36.343 c 0,6.255 5.117,14.326 11.372,17.937 L 0,59.087 c 6.254,3.611 11.372,1.448 11.372,-4.806 V 17.937 C 11.372,11.683 6.254,3.611 0,0"
             style="fill:#b5cde3;fill-opacity:1;fill-rule:nonzero;stroke:none"
             id="path629" />
        </g>
        <g
           id="g631"
           transform="translate(138.2111,17.6124)">
          <path
             d="m 0,0 h -104.12 c -6.6,0 -12,5.4 -12,12 v 35.087 c 0,6.6 5.4,12 12,12 H 0 c 6.6,0 12,-5.4 12,-12 V 12 C 12,5.4 6.6,0 0,0"
             style="fill:#b5cde3;fill-opacity:1;fill-rule:nonzero;stroke:none"
             id="path633" />
        </g>
      </g>
    </g>
  </g>
</svg>
