<?xml version="1.0" encoding="UTF-8" standalone="no"?>
<!-- Created with Inkscape (http://www.inkscape.org/) -->

<svg
   version="1.1"
   id="svg18"
   width="400"
   height="400"
   viewBox="0 0 400 400"
   sodipodi:docname="AshbyIcon.ai"
   xmlns:inkscape="http://www.inkscape.org/namespaces/inkscape"
   xmlns:sodipodi="http://sodipodi.sourceforge.net/DTD/sodipodi-0.dtd"
   xmlns="http://www.w3.org/2000/svg"
   xmlns:svg="http://www.w3.org/2000/svg">
  <defs
     id="defs22">
    <clipPath
       clipPathUnits="userSpaceOnUse"
       id="clipPath334">
      <path
         d="M 0,300 H 300 V 0 H 0 Z"
         id="path332" />
    </clipPath>
  </defs>
  <sodipodi:namedview
     id="namedview20"
     pagecolor="#ffffff"
     bordercolor="#000000"
     borderopacity="0.25"
     inkscape:showpageshadow="2"
     inkscape:pageopacity="0.0"
     inkscape:pagecheckerboard="0"
     inkscape:deskcolor="#d1d1d1"
     showgrid="false" />
  <g
     id="g326"
     inkscape:groupmode="layer"
     inkscape:label="Page 10"
     transform="matrix(1.3333333,0,0,-1.3333333,0,400)">
    <g
       id="g328">
      <g
         id="g330"
         clip-path="url(#clipPath334)">
        <g
           id="g336"
           transform="translate(269.8333,25.4444)">
          <path
             d="M 0,0 -141,156.222"
             style="fill:none;stroke:#85ab8f;stroke-width:18;stroke-linecap:butt;stroke-linejoin:miter;stroke-miterlimit:10;stroke-dasharray:none;stroke-opacity:1"
             id="path338" />
        </g>
        <g
           id="g340"
           transform="translate(243.5,175.6667)">
          <path
             d="m 0,0 c 0,-58.91 -47.756,-106.667 -106.667,-106.667 -58.91,0 -106.666,47.757 -106.666,106.667 0,58.91 47.756,106.667 106.666,106.667 C -47.756,106.667 0,58.91 0,0"
             style="fill:#85ab8f;fill-opacity:1;fill-rule:nonzero;stroke:none"
             id="path342" />
        </g>
        <g
           id="g344"
           transform="translate(223.774,174.5708)">
          <path
             d="m 0,0 c 0,-48.016 -38.925,-86.941 -86.941,-86.941 -48.016,0 -86.94,38.925 -86.94,86.941 0,48.016 38.924,86.941 86.94,86.941 C -38.925,86.941 0,48.016 0,0"
             style="fill:#b5cde3;fill-opacity:1;fill-rule:nonzero;stroke:none"
             id="path346" />
        </g>
      </g>
    </g>
  </g>
</svg>
